<svg width="43" height="27" viewBox="0 0 43 27" fill="none" xmlns="http://www.w3.org/2000/svg">
<path d="M6.88789 19.2588L4.70095 25.8243C4.62154 26.0628 4.50177 26.1423 4.26356 26.1423H0.288064C0.0498557 26.1423 -0.0295563 26.0224 0.0094722 25.7449L8.1987 2.42739C8.35751 2.03001 8.47731 1.63129 8.55671 0.278849C8.55671 0.119897 8.63612 0 8.79492 0H14.3208C14.52 0 14.559 0.0390672 14.5994 0.238431L23.7832 25.7839C23.8222 26.0224 23.7832 26.1423 23.545 26.1423H19.0931C18.8939 26.1423 18.7754 26.0628 18.696 25.9038L16.3907 19.2588H6.88924H6.88789ZM15.1162 14.9227C14.2818 12.2959 12.4125 6.7649 11.6184 3.98055H11.578C10.9415 6.64636 9.35209 11.3018 8.1597 14.9227H15.1162Z" fill="white"/>
<path d="M30.064 17.4297C30.1838 20.2154 32.0114 22.4434 36.0663 22.4434C37.8549 22.4434 39.4847 22.1255 40.9961 21.4884C41.1158 21.4089 41.2343 21.4479 41.2343 21.6473V24.9503C41.2343 25.1887 41.1549 25.3086 40.9961 25.3881C39.4861 26.1047 37.7365 26.5425 35.0328 26.5425C27.7977 26.5425 25.2137 21.4493 25.2137 16.5555C25.2137 11.0245 28.5527 6.13062 34.5563 6.13062C40.56 6.13062 42.7066 10.747 42.7066 14.5268C42.7066 15.6408 42.6676 16.5555 42.5478 16.9932C42.5088 17.1522 42.428 17.2317 42.2302 17.2721C41.6743 17.392 40.0836 17.431 38.1349 17.431H30.0654L30.064 17.4297ZM35.987 14.0068C37.4983 14.0068 38.0151 14.0068 38.1739 13.9678V13.6499C38.1739 12.4954 37.3785 9.94951 34.3572 9.94951C31.6144 9.94951 30.3817 12.059 30.064 14.0082H35.987V14.0068Z" fill="white"/>
</svg>
