<svg width="32" height="28" viewBox="0 0 32 28" fill="none" xmlns="http://www.w3.org/2000/svg">
<path d="M6.88792 20.8902L4.70098 27.4557C4.62158 27.6941 4.5018 27.7736 4.26359 27.7736H0.288064C0.0498557 27.7736 -0.0295563 27.6537 0.0094722 27.3762L8.19874 4.05874C8.35754 3.66136 8.47731 3.26263 8.55671 1.91019C8.55671 1.75124 8.63612 1.63135 8.79492 1.63135H14.3208C14.52 1.63135 14.559 1.67041 14.5994 1.86978L23.7832 27.4153C23.8223 27.6537 23.7832 27.7736 23.545 27.7736H19.0931C18.8939 27.7736 18.7755 27.6941 18.6961 27.5352L16.3907 20.8902H6.88927H6.88792ZM15.1162 16.554C14.2818 13.9272 12.4125 8.39625 11.6184 5.61189H11.5781C10.9415 8.27771 9.35209 12.9331 8.15971 16.554H15.1162Z" fill="white"/>
<path d="M26.4062 2.74529C26.4062 1.11401 27.5595 0 29.1489 0C30.8581 0 31.8527 1.15442 31.8527 2.74529C31.8527 4.33616 30.7787 5.49059 29.1099 5.49059C27.4411 5.49059 26.4062 4.37657 26.4062 2.74529ZM26.6848 8.43524C26.6848 8.23588 26.8045 8.1564 27.0024 8.1564H31.2161C31.4543 8.1564 31.5337 8.19681 31.5337 8.43524V27.4556C31.5337 27.6941 31.4543 27.7735 31.1757 27.7735H27.0804C26.8019 27.7735 26.6834 27.6536 26.6834 27.4152V8.43524H26.6848Z" fill="white"/>
</svg>
