<svg width="41" height="34" viewBox="0 0 41 34" fill="none" xmlns="http://www.w3.org/2000/svg">
<path d="M21.0943 18.4605C21.1703 17.1038 21.8336 15.905 22.8386 15.0579C23.822 14.2252 25.1429 13.7156 26.5929 13.7156C28.0358 13.7156 29.3566 14.2245 30.34 15.0579C31.345 15.905 32.0054 17.1038 32.0844 18.4605C32.1605 19.8531 31.5998 21.1524 30.62 22.1143C29.615 23.0906 28.1937 23.7079 26.5929 23.7079C24.9921 23.7079 23.5636 23.0949 22.5658 22.1143C21.5824 21.1524 21.0225 19.8603 21.1014 18.4677L21.0943 18.4605Z" fill="white"/>
<path d="M12.4802 21.3315C12.4895 21.8627 12.6589 22.8964 12.913 23.7004C13.4471 25.4089 14.3559 26.9881 15.6121 28.3736C16.9042 29.8021 18.4978 30.9506 20.3355 31.7689C22.2665 32.6232 24.3626 33.0611 26.5376 33.0611C28.7127 33.0582 30.8088 32.6131 32.7398 31.7474C34.5774 30.9219 36.1711 29.7733 37.4632 28.3377C38.7266 26.9379 39.631 25.3586 40.1622 23.6502C40.4314 22.7888 40.6016 21.913 40.6698 21.0372C40.7365 20.1758 40.7085 19.3072 40.5858 18.4386C40.346 16.7517 39.7603 15.1653 38.863 13.7296C38.0446 12.4016 36.9822 11.2459 35.7188 10.2696L35.7217 10.2675L23.0159 0.50483C23.0044 0.496216 22.9951 0.486876 22.9829 0.47898C22.1502 -0.161334 20.7432 -0.159177 19.8316 0.482572C18.9056 1.1315 18.7979 2.20539 19.6234 2.88016L19.6198 2.88375L24.9247 7.19798L8.77324 7.2152H8.75171C7.41652 7.21663 6.13159 8.09098 5.88034 9.20363C5.61905 10.3306 6.5264 11.271 7.91901 11.271L7.91686 11.276L16.1002 11.2602L1.4563 22.4586C1.43763 22.4722 1.41753 22.4865 1.4003 22.5002C0.0220498 23.5554 -0.423013 25.3141 0.445574 26.4196C1.32852 27.5466 3.20208 27.5538 4.59469 26.426L12.5627 19.8937C12.5627 19.8937 12.4464 20.7766 12.4558 21.3007L12.4802 21.3315ZM33.0104 24.2819C31.3666 25.9544 29.0623 26.9092 26.5786 26.9092C24.0877 26.9135 21.7834 25.976 20.1395 24.3034C19.3355 23.4851 18.7469 22.5519 18.3808 21.5541C18.0241 20.5706 17.8855 19.5298 17.9774 18.4817C18.0643 17.4552 18.3701 16.4718 18.8603 15.5888C19.3399 14.7202 20.0017 13.9306 20.8129 13.263C22.4136 11.9637 24.4451 11.2531 26.57 11.2531C28.7019 11.2502 30.7334 11.9486 32.3342 13.2486C33.1454 13.9119 33.8058 14.6987 34.2867 15.5673C34.777 16.4502 35.0835 17.4265 35.1697 18.4602C35.2601 19.5082 35.1216 20.5491 34.7648 21.5325C34.4002 22.5375 33.8101 23.4707 33.0061 24.289L33.0104 24.2819Z" fill="white"/>
</svg>
