<svg width="29" height="41" viewBox="0 0 29 41" fill="none" xmlns="http://www.w3.org/2000/svg">
<path fill-rule="evenodd" clip-rule="evenodd" d="M3.5518 14.0791C1.41357 12.7129 0 10.3474 0 7.65819C0 3.42869 3.49654 0 7.80971 0H21.1903C25.5035 0 29 3.42869 29 7.65819C29 10.3474 27.5865 12.7129 25.4482 14.0791C27.5865 15.4454 29 17.8109 29 20.5001C29 24.7296 25.5035 28.1583 21.1903 28.1583H21.0479C19.0091 28.1583 17.1526 27.3921 15.7618 26.1374V33.272C15.7618 37.5488 12.1887 41 7.84511 41C3.54079 41 0 37.58 0 33.3418C0 30.6526 1.4135 28.2872 3.55166 26.9209C1.4135 25.5547 0 23.1893 0 20.5001C0 17.8109 1.41357 15.4454 3.5518 14.0791ZM15.7618 20.5001C15.7618 23.3629 18.1285 25.6836 21.0479 25.6836H21.1903C24.1098 25.6836 26.4764 23.3629 26.4764 20.5001C26.4764 17.6372 24.1098 15.3165 21.1903 15.3165H21.0479C18.1285 15.3165 15.7618 17.6372 15.7618 20.5001ZM13.2382 15.3165H7.80971C4.89024 15.3165 2.52359 17.6372 2.52359 20.5001C2.52359 23.3571 4.8807 25.6742 7.79194 25.6836H7.80024H13.2382V15.3165ZM7.80971 28.1583C7.80379 28.1583 7.79787 28.1583 7.79194 28.1583C4.8807 28.1676 2.52359 30.4848 2.52359 33.3418C2.52359 36.196 4.91679 38.5254 7.84511 38.5254C10.8127 38.5254 13.2382 36.1647 13.2382 33.272V28.1583H7.80971ZM13.2382 12.8417H7.80971C4.89024 12.8417 2.52359 10.521 2.52359 7.65819C2.52359 4.79536 4.89024 2.47462 7.80971 2.47462H13.2382V12.8417ZM21.1903 12.8417H15.7618V2.47462H21.1903C24.1098 2.47462 26.4764 4.79536 26.4764 7.65819C26.4764 10.521 24.1098 12.8417 21.1903 12.8417Z" fill="white"/>
</svg>
