<svg width="43" height="41" viewBox="0 0 43 41" fill="none" xmlns="http://www.w3.org/2000/svg">
<path d="M34.1068 29.7409L33.8906 32.8391C33.8645 33.2125 33.5675 33.5098 33.1941 33.5366L25.7576 34.0672C25.7395 34.0685 25.7213 34.0691 25.7034 34.0691C25.3339 34.0691 25.015 33.7979 24.9604 33.4268L24.534 30.5348H18.4662L18.0397 33.4268C17.9824 33.816 17.6345 34.0959 17.2426 34.0672L9.80608 33.5366C9.43267 33.5098 9.13563 33.2125 9.10959 32.8391L8.89338 29.7409L2.61572 29.1356C2.61862 29.8103 2.6273 30.5494 2.6273 30.6966C2.6273 37.3266 11.0378 40.5134 21.4873 40.55H21.5H21.5129C31.9624 40.5134 40.37 37.3266 40.37 30.6966C40.37 30.5467 40.379 29.8107 40.3821 29.1356L34.1068 29.7409Z" fill="white"/>
<path d="M14.7983 21.1137C14.7983 22.6556 13.5486 23.9053 12.0056 23.9053C10.4633 23.9053 9.21289 22.6556 9.21289 21.1137C9.21289 19.5718 10.4633 18.321 12.0056 18.321C13.5486 18.321 14.7983 19.5718 14.7983 21.1137Z" fill="white"/>
<path d="M25.873 0C27.8382 0.436669 29.7807 1.04504 31.6025 1.96191C31.5607 3.57028 31.4573 5.1114 31.2471 6.67676C31.9532 7.13 32.6978 7.51921 33.3584 8.0498C34.0307 8.56627 34.7146 9.06103 35.3223 9.66504C36.5368 8.8617 37.8235 8.10683 39.1475 7.44043C40.5749 8.97663 41.9101 10.6349 43 12.4902C42.1793 13.8172 41.3233 15.0608 40.3984 16.2412H40.373V26.7197L40.3701 26.7207V27.6289C40.3493 27.6291 40.3283 27.6299 40.3076 27.6318L33.3291 28.3057C32.9636 28.3411 32.6772 28.6347 32.6514 29.001L32.4365 32.083L26.3457 32.5176L25.9268 29.6738C25.8724 29.305 25.5555 29.0312 25.1826 29.0312H17.8174C17.4444 29.0312 17.1276 29.305 17.0732 29.6738L16.6543 32.5176L10.5645 32.083L10.3486 29.001C10.3229 28.6347 10.0364 28.3409 9.6709 28.3057L2.68945 27.6318C2.66885 27.6299 2.64775 27.6291 2.62695 27.6289V16.2412H2.60156C1.67693 15.0608 0.820291 13.8172 0 12.4902C1.09032 10.6348 2.42508 8.97668 3.85254 7.44043C5.1768 8.1068 6.46224 8.86173 7.67676 9.66504C8.28467 9.06098 8.97023 8.5663 9.6416 8.0498C10.3024 7.51919 11.0464 7.13002 11.7539 6.67676C11.5431 5.11138 11.4391 3.5703 11.3975 1.96191C13.2192 1.04496 15.1627 0.436679 17.127 0C17.9127 1.31858 18.6294 2.74667 19.2539 4.14258C19.9951 4.01875 20.7395 3.97274 21.4863 3.96387V3.96289C21.4908 3.96294 21.4955 3.96385 21.5 3.96387C21.5044 3.96387 21.5094 3.96289 21.5146 3.96289V3.96387C22.2599 3.97274 23.0043 4.01882 23.7451 4.14258C24.37 2.74656 25.0884 1.31868 25.873 0ZM21.5 19.1201C20.752 19.1201 20.1455 19.6716 20.1455 20.3506V24.2236C20.1455 24.9031 20.752 25.4541 21.5 25.4541C22.2479 25.454 22.8555 24.9031 22.8555 24.2236V20.3506C22.8555 19.6717 22.2479 19.1203 21.5 19.1201ZM11.6035 16.6592C9.28086 16.6592 7.39648 18.5412 7.39648 20.8643C7.39656 23.1888 9.28091 25.0723 11.6035 25.0723C13.9272 25.0722 15.8105 23.1887 15.8105 20.8643C15.8105 18.5413 13.9272 16.6593 11.6035 16.6592ZM31.3975 16.6592C29.0733 16.6592 27.1895 18.5412 27.1895 20.8643C27.1895 23.1888 29.0733 25.0723 31.3975 25.0723C33.7197 25.0721 35.6034 23.1887 35.6035 20.8643C35.6035 18.5413 33.7198 16.6594 31.3975 16.6592Z" fill="white"/>
<path d="M28.2021 21.1137C28.2021 22.6556 29.4514 23.9053 30.9933 23.9053C32.5367 23.9053 33.786 22.6556 33.786 21.1137C33.786 19.5718 32.5367 18.321 30.9933 18.321C29.4514 18.321 28.2021 19.5718 28.2021 21.1137Z" fill="white"/>
</svg>
