<svg width="27" height="29" viewBox="0 0 27 29" fill="none" xmlns="http://www.w3.org/2000/svg">
<path d="M4.80992 27.9741C4.80992 28.253 4.73054 28.3324 4.49233 28.3324H0.317626C0.0794172 28.3324 0 28.2126 0 27.9741V2.50809C0 2.22925 0.119792 2.19019 0.317626 2.19019H4.49233C4.73054 2.19019 4.80992 2.26966 4.80992 2.50809V27.9741Z" fill="white"/>
<path d="M8.82446 18.7025C8.82446 12.933 13.1176 8.3167 20.1144 8.3167C20.6716 8.3167 21.148 8.35711 21.8236 8.43659V0.278849C21.8236 0.0794853 21.903 0 22.0618 0H26.3954C26.5945 0 26.5945 0.0794787 26.5945 0.238431V24.2725C26.5945 25.0687 26.6739 26.1032 26.7533 26.8198C26.7533 27.0192 26.713 27.0987 26.5151 27.1781C23.9312 28.2921 21.3862 28.7299 19.0015 28.7299C13.2374 28.7299 8.82446 25.3879 8.82446 18.7025ZM21.825 12.6152C21.3082 12.4158 20.6716 12.3363 19.957 12.3363C16.4189 12.3363 13.7555 14.6048 13.7555 18.4641C13.7555 22.8016 16.3395 24.5918 19.5196 24.5918C20.315 24.5918 21.1103 24.5123 21.825 24.2739V12.6152Z" fill="white"/>
</svg>
