<svg width="53" height="48" viewBox="0 0 53 48" fill="none" xmlns="http://www.w3.org/2000/svg">
<path d="M8.22478 2.12019C6.09105 3.3954 1.8866 8.2575 1.84619 9.53261V11.6435C1.84619 14.3192 4.33099 16.6706 6.58664 16.6706C9.29493 16.6706 11.5518 14.411 11.5523 11.7293C11.5523 14.4107 13.7318 16.6706 16.4407 16.6706C19.1494 16.6706 21.259 14.411 21.259 11.7293C21.259 14.4107 23.5757 16.6706 26.284 16.6706H26.3327C29.041 16.6706 31.3598 14.411 31.3598 11.7293C31.3598 14.4107 33.4684 16.6706 36.1768 16.6706C38.8851 16.6706 41.0646 14.411 41.0646 11.7293C41.0646 14.4107 43.3214 16.6706 46.0298 16.6706C48.2845 16.6706 50.7693 14.3194 50.7693 11.6435V9.53261C50.7272 8.2575 46.5232 3.3954 44.3902 2.12019C37.7589 1.8857 33.1587 1.84541 26.3061 1.8462C19.4559 1.8467 10.1118 1.95424 8.22439 2.12019H8.22478ZM21.2249 15.4105C20.9658 15.8649 20.645 16.2806 20.2717 16.6456C19.2119 17.6917 17.7865 18.2771 16.3022 18.276C14.8154 18.2774 13.3873 17.6919 12.3247 16.6452C11.9552 16.28 11.6742 15.8894 11.4153 15.4345V15.4354C11.1586 15.8911 10.7979 16.2813 10.4285 16.647C9.36586 17.6928 7.93843 18.2778 6.4523 18.2766C6.26639 18.2766 6.07393 18.2254 5.91679 18.1719C5.69996 20.4548 5.6071 22.6351 5.57521 24.2275V24.2364C5.5708 25.045 5.56738 25.7086 5.56327 26.6306C5.60534 31.4212 5.09194 42.1539 7.6609 44.7908C11.6415 45.7263 18.9662 46.1516 26.3159 46.1539H26.3164C33.6657 46.1516 40.9908 45.7263 44.9715 44.7931C47.5403 42.1556 47.027 31.423 47.069 26.6341C47.0653 25.7119 47.0615 25.0478 47.0573 24.2399V24.231C47.0241 22.6402 46.9323 20.4592 46.7143 18.1768C46.5573 18.2303 46.3633 18.2822 46.1767 18.2822C44.6903 18.2834 43.2625 17.6985 42.1994 16.6528C41.8288 16.2865 41.4693 15.8962 41.212 15.4412L41.2108 15.4397C40.9526 15.894 40.6713 16.2853 40.3008 16.6504C39.2382 17.6967 37.8104 18.282 36.3239 18.2806C34.7789 18.2806 33.3766 17.657 32.3543 16.6504C31.9812 16.285 31.6603 15.8693 31.4007 15.4151C31.1447 15.8691 30.827 16.2848 30.4568 16.6504C29.3937 17.6968 27.9654 18.2821 26.4784 18.2806C26.4245 18.2806 26.3701 18.2783 26.3169 18.2762H26.3152C26.2614 18.2783 26.2075 18.2806 26.1537 18.2806C24.6669 18.2821 23.2387 17.6968 22.1757 16.6504C21.8051 16.2851 21.4871 15.8695 21.2309 15.4156L21.2249 15.4105ZM17.1398 20.7273L17.1394 20.7292H17.1439C18.7612 20.7327 20.1996 20.7292 21.9785 22.6852C23.3813 22.5375 24.844 22.4635 26.311 22.4659H26.3132C27.7801 22.4636 29.2427 22.5394 30.6455 22.6863C32.4267 20.731 33.8627 20.7353 35.4802 20.731H35.4846V20.7287C36.2503 20.7287 39.3059 20.7287 41.4367 26.7509L43.7263 35.0136C45.4224 41.1606 43.1836 41.3121 40.3912 41.3165C36.2491 41.1629 33.9569 38.1339 33.9569 35.1072C31.6645 35.4858 28.9894 35.6752 26.3154 35.6752H26.3143C23.6401 35.6752 20.9658 35.4858 18.674 35.1072C18.674 38.1339 16.3816 41.1606 12.24 41.3165C9.44757 41.3121 7.20836 41.1606 8.90481 35.0159L11.1927 26.7531C13.3235 20.731 16.3814 20.731 17.1447 20.731L17.1398 20.7273ZM26.3092 25.4601V25.4616C26.3054 25.4654 21.9498 29.4919 21.167 30.924L24.0191 30.809V33.3124C24.0191 33.4297 25.1639 33.382 26.3092 33.3288H26.3108C27.4562 33.3823 28.6009 33.4297 28.6009 33.3126V30.8092L31.453 30.9237C30.6702 29.4917 26.3108 25.4616 26.3108 25.4616V25.4603L26.3103 25.4607L26.3092 25.4601Z" fill="white"/>
<path d="M4.37781 17.6862C4.35887 17.887 4.34081 18.0872 4.3236 18.2863C4.12883 20.5388 4.04197 22.6614 4.01045 24.2465V24.2561C4.00571 25.132 4.00203 25.8509 3.99761 26.8498C4.04286 32.0396 3.49072 43.6667 6.25355 46.5234C10.5345 47.5367 18.4121 47.9975 26.3164 48C34.2203 47.9975 42.0989 47.5367 46.38 46.5258C49.1428 43.6685 48.5907 32.0415 48.6359 26.8535C48.6319 25.8546 48.6278 25.1351 48.6232 24.2598V24.2502C48.5904 22.6648 48.5043 20.5383 48.3081 18.283C48.2911 18.0867 48.2732 17.8894 48.2544 17.6915L4.37781 17.6862Z" fill="url(#paint0_linear_231_301)" fill-opacity="0.3"/>
<path d="M6.85999 0.296835C4.56523 1.67831 0.0434603 6.94559 0 8.32696V12.9231C0 15.5151 2.13689 17.8263 4.3236 18.2863C4.34081 18.0872 4.35887 17.887 4.37781 17.6862L48.2544 17.6915C48.2732 17.8894 48.2911 18.0867 48.3081 18.283C50.4886 17.8154 52.6154 15.5092 52.6154 12.9231V8.32696C52.5701 6.94559 48.0489 1.67831 45.7549 0.296835C38.6231 0.0427964 33.6757 -0.000841414 26.3059 1.21387e-05C18.9387 0.000545609 8.8899 0.117056 6.85999 0.296835Z" fill="url(#paint1_linear_231_301)" fill-opacity="0.3"/>
<defs>
<linearGradient id="paint0_linear_231_301" x1="0" y1="0" x2="54.2401" y2="46.0879" gradientUnits="userSpaceOnUse">
<stop stop-color="white"/>
<stop offset="0.298077" stop-color="white" stop-opacity="0"/>
<stop offset="0.399038" stop-color="white" stop-opacity="0"/>
<stop offset="1" stop-color="white"/>
</linearGradient>
<linearGradient id="paint1_linear_231_301" x1="0" y1="0" x2="54.2401" y2="46.0879" gradientUnits="userSpaceOnUse">
<stop stop-color="white"/>
<stop offset="0.298077" stop-color="white" stop-opacity="0"/>
<stop offset="0.399038" stop-color="white" stop-opacity="0"/>
<stop offset="1" stop-color="white"/>
</linearGradient>
</defs>
</svg>
