<svg width="21" height="15" viewBox="0 0 21 15" fill="none" xmlns="http://www.w3.org/2000/svg">
<path d="M20 0H1C0.447715 0 0 0.447715 0 1V2.7179C0 3.06763 0.182705 3.39194 0.481818 3.57317L9.98182 9.32891C10.3003 9.52188 10.6997 9.52188 11.0182 9.32891L20.5182 3.57317C20.8173 3.39195 21 3.06763 21 2.7179V0.999999C21 0.447715 20.5523 0 20 0Z" fill="white"/>
<path d="M1 15H20C20.5523 15 21 14.5523 21 14L21 6.72077C21 5.94365 20.1524 5.46351 19.4858 5.86309L11.0142 10.9418C10.6977 11.1315 10.3023 11.1315 9.98583 10.9418L1.51417 5.86309C0.847643 5.46351 0 5.94365 0 6.72077V14C0 14.5523 0.447715 15 1 15Z" fill="white"/>
</svg>
