<svg width="33" height="27" viewBox="0 0 33 27" fill="none" xmlns="http://www.w3.org/2000/svg">
<path d="M0 0.437388C0 0.238208 0.0793387 0.119779 0.278335 0.119779C1.78829 0.0807506 4.72615 0 7.62639 0C15.3321 0 18.192 4.29314 18.192 8.66702C18.192 14.9883 13.3072 17.731 7.30906 17.731H4.80683V25.8813C4.80683 26.0804 4.72749 26.1989 4.4895 26.1989H0.318646C0.11965 26.1989 0.00134588 26.1195 0.00134588 25.9203V0.437388H0ZM4.80549 13.4769C5.48046 13.5173 5.99676 13.5173 7.30771 13.5173C10.6436 13.5173 13.4645 12.4043 13.4645 8.78679C13.4645 5.88523 11.3992 4.1747 7.74469 4.1747C6.35441 4.1747 5.24247 4.21508 4.80549 4.25411V13.4769Z" fill="white"/>
<path d="M25.4191 6.59977C25.6571 6.59977 25.7768 6.67918 25.8561 6.91739C26.0551 7.43418 26.2138 8.42873 26.2528 9.30216C27.6027 7.63201 29.867 6.20142 32.6072 6.20142C32.8452 6.20142 32.9245 6.24179 32.9245 6.48V10.6937C32.9245 10.8929 32.8452 10.9723 32.5668 10.9723C29.7473 10.8929 27.4037 11.8861 26.4894 13.0798V25.8812C26.4894 26.1194 26.3697 26.1988 26.1317 26.1988H22.0012C21.7229 26.1988 21.6436 26.079 21.6436 25.8812V12.166C21.6436 10.4569 21.6032 8.15015 21.4446 6.83933C21.4446 6.64015 21.4849 6.60112 21.6826 6.60112H25.4164L25.4191 6.59977Z" fill="white"/>
</svg>
