<svg width="36" height="27" viewBox="0 0 36 27" fill="none" xmlns="http://www.w3.org/2000/svg">
<path d="M0 0.437792C0 0.238428 0.079412 0.11989 0.278592 0.11989C1.78994 0.0808251 4.73055 0 7.63346 0C15.3463 0 18.2075 4.2971 18.2075 8.67502C18.2075 15.0021 13.3181 17.7474 7.31449 17.7474H4.80992V25.9052C4.80992 26.1045 4.73054 26.2231 4.49233 26.2231H0.317626C0.118446 26.2231 0 26.1436 0 25.9442V0.437792ZM4.81127 13.4894C5.48687 13.5298 6.00367 13.5298 7.31584 13.5298C10.6548 13.5298 13.4783 12.4158 13.4783 8.79491C13.4783 5.89066 11.4111 4.17856 7.75323 4.17856C6.36166 4.17856 5.24866 4.21897 4.81127 4.25804V13.4894Z" fill="white"/>
<path d="M28.8623 10.0679C26.7547 10.0679 26.0401 10.9435 26.0401 11.7787C26.0401 12.6139 26.6363 13.251 29.1812 14.2451C33.7139 15.9168 35.2642 17.7071 35.2642 20.5318C35.2642 24.2726 32.3223 26.6205 27.433 26.6205C25.0872 26.6205 23.0201 26.1827 21.8277 25.5065C21.6285 25.3866 21.5491 25.3071 21.5491 25.0687V21.2889C21.5491 21.0895 21.7079 21.01 21.8667 21.0895C23.5759 22.2035 25.7629 22.6817 27.5514 22.6817C29.6186 22.6817 30.6132 21.9651 30.6132 20.9306C30.6132 19.896 29.8581 19.2993 27.3926 18.3038C23.0591 16.7116 21.5087 14.9214 21.5087 12.0562C21.5087 9.03204 23.9729 6.20728 28.943 6.20728C31.2484 6.20728 32.9979 6.52518 33.9521 7.00338C34.1513 7.12327 34.1903 7.28222 34.1903 7.48159V10.9826C34.1903 11.1819 34.0705 11.3005 33.8323 11.221C32.5996 10.5448 30.6118 10.0666 28.8636 10.0666L28.8623 10.0679Z" fill="white"/>
</svg>
