<svg width="37" height="43" viewBox="0 0 37 43" fill="none" xmlns="http://www.w3.org/2000/svg">
<path d="M37 30.1V10.0333L20.1106 0V7.70417L26.7271 11.6458C26.9882 11.825 26.9882 12.1833 26.7271 12.2729L18.8918 16.9312C18.6306 17.1104 18.3694 17.0208 18.1953 16.9312L10.36 12.2729C10.0988 12.1833 10.0988 11.7354 10.36 11.6458L16.9765 7.70417V0L0 10.0333V30.1L6.44235 26.2479V18.3646C6.44235 18.0958 6.79059 17.9167 6.96471 18.0063L14.8 22.6646C15.0612 22.8438 15.1482 23.0229 15.1482 23.2917V32.6083C15.1482 32.8771 14.8 33.0562 14.6259 32.9667L8.00941 29.025L1.56706 32.8771L18.4565 43L35.3459 32.9667L28.9035 29.1146L22.2871 33.0563C22.0259 33.2354 21.7647 33.0562 21.7647 32.6979V23.3813C21.7647 23.1125 21.9388 22.8437 22.1129 22.7542L29.9482 18.0958C30.2094 17.9167 30.4706 18.0958 30.4706 18.4542V26.3375L37 30.1Z" fill="white"/>
</svg>
